<svg xmlns="http://www.w3.org/2000/svg" xmlns:xlink="http://www.w3.org/1999/xlink" version="1.1" x="0px" y="0px" viewBox="0 0 66 82.5" style="enable-background:new 0 0 66 66;" xml:space="preserve">
<path fill="#FFFFFF" d="M11.79,11.9c-0.15,0.39-0.55,0.63-0.95,0.63c-0.13,0-0.27-0.02-0.39-0.07l-2.26-0.94c-0.53-0.22-0.77-0.83-0.56-1.35  c0.23-0.53,0.83-0.77,1.35-0.56l2.25,0.94C11.77,10.77,12.01,11.38,11.79,11.9z"/>
<path fill="#FFFFFF" d="M11.23,16.88l-2.25,0.93c-0.13,0.06-0.27,0.08-0.39,0.08c-0.41,0-0.79-0.24-0.96-0.64c-0.22-0.53,0.03-1.13,0.56-1.34  l2.26-0.94c0.53-0.22,1.13,0.03,1.34,0.56C12.01,16.05,11.77,16.66,11.23,16.88z"/>
<path fill="#FFFFFF" d="M5.58,32.71c-0.85,0-1.55,0.69-1.55,1.55v29.19c0,0.86,0.7,1.55,1.55,1.55h4.65V32.71H5.58z M8.16,52.68  c0,0.57-0.45,1.03-1.03,1.03c-0.57,0-1.03-0.46-1.03-1.03v-7.64C6.1,44.47,6.56,44,7.13,44c0.58,0,1.03,0.46,1.03,1.03V52.68z"/>
<path fill="#FFFFFF" d="M11.79,15.52c0.23,0.53-0.02,1.14-0.56,1.35l-2.25,0.93c-0.13,0.06-0.27,0.08-0.39,0.08c-0.41,0-0.79-0.24-0.96-0.64  c-0.22-0.53,0.03-1.13,0.56-1.34l2.26-0.94C10.97,14.75,11.57,15,11.79,15.52z"/>
<path fill="#FFFFFF" d="M11.79,11.9c-0.15,0.39-0.55,0.63-0.95,0.63c-0.13,0-0.27-0.02-0.39-0.07l-2.26-0.94c-0.53-0.22-0.77-0.83-0.56-1.35  c0.23-0.53,0.83-0.77,1.35-0.56l2.25,0.94C11.77,10.77,12.01,11.38,11.79,11.9z"/>
<path fill="#FFFFFF" d="M16.09,18.56V8.87c0-0.29,0.23-0.52,0.52-0.52h19.88c0.29,0,0.52,0.23,0.52,0.52v3.81h-3.18c-0.44-1.49-1.82-2.58-3.45-2.58  c-1.99,0-3.61,1.62-3.61,3.61s1.62,3.61,3.61,3.61c1.63,0,3-1.09,3.45-2.58h3.18v3.82c0,0.29-0.23,0.52-0.52,0.52H16.61  C16.33,19.08,16.09,18.85,16.09,18.56z"/>
<path fill="#FFFFFF" d="M36.49,6.29H24.32C27.89,2.44,33,0.52,38.38,1.1c6.74,0.72,12.17,5.32,14.09,11.57h-13.4V8.87  C39.07,7.44,37.91,6.29,36.49,6.29z"/>
<path fill="#FFFFFF" d="M39.07,14.74h13.89c0.06,0.35,0.12,0.69,0.17,1.04c0.6,5.41-1.34,10.6-5.33,14.24c-1.86,1.7-2.92,4.07-2.92,6.47v6.68H31.07  v-4.92c0-1.3-1.05-2.35-2.35-2.35h-6.45c-0.52,0-0.94-0.42-0.94-0.95v-6.77c0-0.93-0.76-1.69-1.69-1.69h-1.85  c-0.36,0-0.61-0.38-0.46-0.71l2.11-4.64h17.05c1.43,0,2.58-1.16,2.58-2.58V14.74z"/>
<path fill="#FFFFFF" d="M48.17,32.71h7.17V65H12.29V32.71h6.97v2.24c0,1.66,1.34,3.01,3,3.01h6.45c0.15,0,0.29,0.12,0.29,0.29v5.96  c0,0.57,0.46,1.03,1.03,1.03h15.88c0.57,0,1.03-0.46,1.03-1.03V36.5C46.95,35.15,47.38,33.84,48.17,32.71z"/>
<path fill="#FFFFFF" d="M61.96,34.26v29.19c0,0.86-0.7,1.55-1.55,1.55h-3V32.71h3C61.26,32.71,61.96,33.4,61.96,34.26z"/></svg>