<svg xmlns="http://www.w3.org/2000/svg" viewBox="0 0 60 75" x="0px" y="0px">
<path fill="#FFFFFF" d="M30,10C16.626,10,5.32,24.888,2.174,29.45a.95.95,0,0,0,0,1.1C5.32,35.112,16.626,50,30,50S54.68,35.112,57.826,30.55a.95.95,0,0,0,0-1.1C54.68,24.888,43.374,10,30,10Zm0,38A18,18,0,1,1,48,30,18.021,18.021,0,0,1,30,48Z"/>
<path fill="#FFFFFF" d="M30,14A16,16,0,1,0,46,30,16.019,16.019,0,0,0,30,14ZM44,25a1,1,0,0,1-1,1H40v3h3a1,1,0,0,1,0,2H40v3h3a1,1,0,0,1,0,2H40v1a3,3,0,0,1-3,3H36v3a1,1,0,0,1-2,0V40H31v3a1,1,0,0,1-2,0V40H26v3a1,1,0,0,1-2,0V40H23a3,3,0,0,1-3-3V36H17a1,1,0,0,1,0-2h3V31H17a1,1,0,0,1,0-2h3V26H17a1,1,0,0,1,0-2h3V23a3,3,0,0,1,3-3h1V17a1,1,0,0,1,2,0v3h3V17a1,1,0,0,1,2,0v3h3V17a1,1,0,0,1,2,0v3h1a3,3,0,0,1,3,3v1h3A1,1,0,0,1,44,25Z"/>
<path fill="#FFFFFF" d="M37,22H23a1,1,0,0,0-1,1V37a1,1,0,0,0,1,1H37a1,1,0,0,0,1-1V23A1,1,0,0,0,37,22ZM36,34a2,2,0,0,1-2,2H26a2,2,0,0,1-2-2V26a2,2,0,0,1,2-2h8a2,2,0,0,1,2,2Z"/>
<rect fill="#FFFFFF" x="26" y="26" width="4" height="4"/>
</svg>