<svg xmlns="http://www.w3.org/2000/svg"
 xmlns:xlink="http://www.w3.org/1999/xlink" 
 version="1.1" x="0px" y="0px" viewBox="0 0 64 80" 
 style="enable-background:new 0 0 64 64;" xml:space="preserve"><g>
 <path fill="#FFFFFF" d="M63.49,45.55c-1.02-1.93-3.33-2.83-5.39-2.09L44.92,48.2c0.27-0.56,0.44-1.18,0.44-1.84c0-2.33-1.89-4.22-4.22-4.22h-8.52   l-9.52-5.27c-0.07-0.04-0.16-0.06-0.24-0.06H11.49c-0.23-1.56-1.58-2.76-3.2-2.76h-7.8C0.22,34.05,0,34.27,0,34.54v23.63   c0,0.28,0.22,0.5,0.49,0.5h7.8c1.59,0,2.92-1.16,3.18-2.68h2.4l9.95,5.26c2.45,1.29,5.18,1.97,7.95,1.97c0.21,0,0.42,0,0.62-0.01   c2.18-0.08,4.3-0.57,6.29-1.46l22.71-10.12c1.13-0.5,1.97-1.42,2.37-2.58C64.16,47.88,64.06,46.64,63.49,45.55z M6.06,41.45   c-1.39,0-2.52-1.13-2.52-2.52s1.13-2.53,2.52-2.53s2.52,1.14,2.52,2.53S7.45,41.45,6.06,41.45z M62.82,48.72   c-0.31,0.9-0.97,1.62-1.84,2.01L38.28,60.85c-1.88,0.84-3.87,1.3-5.92,1.38c-2.8,0.1-5.6-0.54-8.07-1.85l-10.05-5.32   c-0.07-0.04-0.15-0.06-0.23-0.06h-2.46V37.79h11.2l9.52,5.27c0.07,0.04,0.16,0.06,0.24,0.06h8.65c1.78,0,3.23,1.45,3.23,3.23   c0,0.99-0.45,1.86-1.15,2.45l-2.17,0.78H28.48c-0.27,0-0.49,0.22-0.49,0.49s0.22,0.49,0.49,0.49h12.66c0.97,0,1.85-0.34,2.56-0.89   l14.73-5.3c1.59-0.58,3.39,0.12,4.18,1.62C63.06,46.85,63.14,47.82,62.82,48.72z"/>
 <path fill="#FFFFFF" d="M16.41,33.3c0.01,0.06,0.03,0.12,0.06,0.18c0,0,0,0,0,0c0,0,0.01,0.01,0.01,0.01c0.04,0.06,0.09,0.11,0.15,0.15   c0.02,0.01,0.04,0.02,0.06,0.03c0.02,0.01,0.04,0.02,0.06,0.03l3.38,1.09c0.05,0.02,0.1,0.02,0.15,0.02c0.21,0,0.4-0.13,0.47-0.34   c0.08-0.26-0.06-0.54-0.32-0.62l-2.32-0.75l6.97-3.98l9.81,5.06c0.01,0,0.01,0,0.02,0c0.06,0.03,0.13,0.05,0.21,0.05   c0.08,0,0.14-0.02,0.21-0.05c0,0,0.01,0,0.01,0l9.81-4.95l6.97,3.98l-2.32,0.75c-0.26,0.08-0.4,0.36-0.32,0.62   c0.07,0.21,0.26,0.34,0.47,0.34c0.05,0,0.1-0.01,0.15-0.02l3.38-1.09c0.02-0.01,0.04-0.02,0.06-0.03c0.02-0.01,0.04-0.02,0.06-0.03   c0.06-0.04,0.11-0.09,0.15-0.15c0,0,0.01-0.01,0.01-0.01c0,0,0,0,0,0c0.03-0.06,0.05-0.12,0.06-0.18c0-0.04,0-0.07-0.01-0.1   c0-0.03,0-0.05-0.01-0.08l0,0c0,0,0,0,0,0l-0.93-3.54c-0.07-0.26-0.34-0.42-0.6-0.35c-0.26,0.07-0.42,0.34-0.35,0.6l0.63,2.41   l-6.9-3.94V15.7c0-0.09-0.03-0.18-0.08-0.25c-0.01-0.02-0.02-0.03-0.03-0.04c-0.05-0.07-0.11-0.12-0.19-0.16c0,0,0,0,0,0   l-9.74-4.79l0,0V2.52l1.77,1.91c0.18,0.2,0.5,0.21,0.7,0.03c0.2-0.18,0.21-0.5,0.03-0.7l-2.62-2.83c0,0-0.01,0-0.01-0.01   c-0.04-0.04-0.09-0.08-0.15-0.11c0,0-0.01-0.01-0.01-0.01c-0.06-0.02-0.12-0.04-0.19-0.04c0,0,0,0,0,0s0,0,0,0   c-0.02,0-0.03,0.01-0.05,0.01c-0.05,0.01-0.1,0.01-0.15,0.03c-0.02,0.01-0.03,0.02-0.05,0.03c-0.04,0.02-0.08,0.05-0.11,0.08   c0,0-0.01,0-0.01,0.01l-2.52,2.83c-0.18,0.2-0.16,0.51,0.04,0.7c0.09,0.08,0.21,0.12,0.33,0.12c0.14,0,0.27-0.06,0.37-0.16   l1.66-1.87v7.83l0,0l-9.74,4.82c-0.05,0.02-0.1,0.05-0.14,0.09c0,0-0.01,0.01-0.01,0.01c-0.01,0.01-0.01,0.01-0.02,0.02   c-0.02,0.02-0.04,0.04-0.05,0.06c-0.01,0.01,0,0.02-0.01,0.03c-0.04,0.07-0.07,0.15-0.07,0.24v12.62l-6.9,3.94l0.63-2.41   c0.07-0.26-0.09-0.53-0.35-0.6c-0.26-0.07-0.53,0.09-0.6,0.35l-0.93,3.54c0,0,0,0,0,0l0,0c-0.01,0.03,0,0.05-0.01,0.08   C16.42,33.23,16.41,33.27,16.41,33.3z M25.56,16.48l9.06,4.79l0,0v11.68l-9.06-4.68V16.48z M35.61,32.96V21.21l0,0l9.06-4.71v11.89   L35.61,32.96z"/></g>
 </svg>