<svg xmlns="http://www.w3.org/2000/svg" 
data-name="Layer 1" viewBox="0 0 100 125" 
x="0px" y="0px"><title>Application and Programming (Glyph)-SVG</title>
<path fill="#FFFFFF" d="M75.07,52l-8.63,8.61a2.81,2.81,0,0,1-2,.82,2.76,2.76,0,0,1-2-.82,2.86,2.86,0,0,1,0-4.08L69,50,62.38,43.4a2.83,2.83,0,0,1,0-4,2.89,2.89,0,0,1,4.06,0L75.07,48a2.84,2.84,0,0,1,0,4.08ZM58.35,39.78l-11.52,23a2.92,2.92,0,0,1-2.61,1.59A2.78,2.78,0,0,1,43,64.07a2.91,2.91,0,0,1-1.32-3.88l11.52-23a2.93,2.93,0,0,1,3.89-1.29,2.89,2.89,0,0,1,1.29,3.85ZM37.65,56.57a2.92,2.92,0,0,1,0,4.08,3,3,0,0,1-4.09,0L24.93,52a2.84,2.84,0,0,1,0-4.08l8.63-8.61a2.93,2.93,0,0,1,4.09,0,2.88,2.88,0,0,1,0,4L31,50ZM89.17,40.64A2.89,2.89,0,0,0,86,38.44a8.62,8.62,0,0,1-8-13.77,2.87,2.87,0,0,0-.32-3.81,40.06,40.06,0,0,0-16.29-9.38A2.86,2.86,0,0,0,58,13.1a8.66,8.66,0,0,1-16,0,2.86,2.86,0,0,0-3.46-1.62,40.06,40.06,0,0,0-16.29,9.38A2.87,2.87,0,0,0,22,24.67a8.62,8.62,0,0,1-8,13.77,2.86,2.86,0,0,0-3.15,2.2,39,39,0,0,0,0,18.72A2.92,2.92,0,0,0,14,61.56a8.61,8.61,0,0,1,8,13.76,2.88,2.88,0,0,0,.32,3.82,40.06,40.06,0,0,0,16.29,9.38A2.86,2.86,0,0,0,42,86.9a8.66,8.66,0,0,1,16,0,2.86,2.86,0,0,0,2.66,1.74,2.51,2.51,0,0,0,.8-.12,40.06,40.06,0,0,0,16.29-9.38,2.88,2.88,0,0,0,.32-3.82,8.61,8.61,0,0,1,8-13.76,2.9,2.9,0,0,0,3.15-2.2,39,39,0,0,0,0-18.72Z"/>
<text x="0" y="115" fill="#000000" font-size="5px" font-weight="bold" font-family="'Helvetica Neue', Helvetica, Arial-Unicode, Arial, Sans-serif">
</text><text x="0" y="120" fill="#000000" font-size="5px" font-weight="bold" font-family="'Helvetica Neue', Helvetica, Arial-Unicode, Arial, Sans-serif"></text></svg>