<svg xmlns="http://www.w3.org/2000/svg" xmlns:xlink="http://www.w3.org/1999/xlink" xml:space="preserve" version="1.1" style="shape-rendering:geometricPrecision;text-rendering:geometricPrecision;image-rendering:optimizeQuality;" viewBox="0 0 847 1058.75" x="0px" y="0px" fill-rule="evenodd" clip-rule="evenodd"><defs><style type="text/css">
   
   
  </style></defs><g>
  <path fill="#FFFFFF" class="fil0" d="M742 112l2 622c0,5 -2,8 -7,11l-76 44c-4,3 -8,3 -13,0l-539 -311c-4,-3 -6,-6 -6,-11l0 -87c0,-5 1,-9 6,-12 179,-104 358,-207 537,-311 4,-2 9,-2 12,0l78 45c3,2 6,6 6,10zm-99 64l0 62c-99,57 -198,114 -296,171l-54 -31c117,-67 233,-135 350,-202zm-380 192c-8,4 -7,16 0,20l302 175 0 62 -427 -247 514 -297 54 31c-147,85 -295,171 -443,256zm457 360l-2 -595 -51 29 0 597 53 -31zm-77 31l0 -494 -54 31 0 349c1,10 -11,15 -18,10l-445 -257 0 63 517 298zm-78 -449l-195 113 195 112 0 -225z"/>
  
  

  <path fill="#FFFFFF" class="fil0" d="M543 349c-43,25 -84,49 -127,74l127 73 0 -147zm-25 44l0 59 -52 -29c20,-12 31,-18 52,-30z"/>
  <path fill="#FFFFFF" class="fil0" d="M789 113l3 620c0,23 -11,42 -31,54l-76 43c-19,12 -41,12 -61,1l-539 -312c-19,-11 -30,-30 -30,-52l0 -87c0,-23 10,-42 30,-54 182,-105 356,-206 538,-310 18,-11 41,-11 59,0l77 44c19,10 31,31 30,53zm-692 235c-12,7 -17,18 -17,32l0 87c0,13 7,24 17,30l540 312c12,6 24,6 36,0l75 -44c12,-7 19,-18 19,-32l-3 -620c1,-13 -7,-25 -17,-31l-77 -44c-11,-7 -24,-7 -35,0 -185,106 -351,203 -538,310z"/></g></svg>