<svg xmlns="http://www.w3.org/2000/svg" 
viewBox="0 0 64 80" x="0px" y="0px">
<g data-name="Deep Learning">
<path fill="#FFFFFF" d="M20,37a5,5,0,0,1,0-10,5,5,0,0,1,4.9,4H36V23H28.9A5.1,5.1,0,0,1,25,21.1l-1.6-2A3,3,0,0,0,21.1,18H9.1A3.4,3.4,0,0,0,9,19a8.9,8.9,0,0,0,.9,3.9,10,10,0,0,0,0,18.2A8.6,8.6,0,0,0,9,45a3.4,3.4,0,0,0,.1,1h12a3,3,0,0,0,2.3-1.1l1.6-2A5.1,5.1,0,0,1,28.9,41H36V33H24.9A5,5,0,0,1,20,37Z"/>
<path fill="#FFFFFF" d="M27,4a9,9,0,0,0-8.5,6H18a9.1,9.1,0,0,0-8.5,6H21.1A5.1,5.1,0,0,1,25,17.9l1.6,2A3,3,0,0,0,28.9,21H36V13A9,9,0,0,0,27,4Z"/>
<path fill="#FFFFFF" d="M26.6,44.1l-1.6,2A5.1,5.1,0,0,1,21.1,48H9.5A9.1,9.1,0,0,0,18,54h.5A9,9,0,0,0,36,51V43H28.9A3,3,0,0,0,26.6,44.1Z"/>
<path fill="#FFFFFF" d="M53,25a7,7,0,0,0-6.9,6H36v2H46.1A7,7,0,1,0,53,25Z"/>
<path fill="#FFFFFF" d="M43,43a2.9,2.9,0,0,1,3,3v4.1A5,5,0,0,0,42,55a5,5,0,0,0,10,0,5,5,0,0,0-4-4.9V46a5,5,0,0,0-5-5H36v2Z"/>
<path fill="#FFFFFF" d="M48,18V13.9A5,5,0,0,0,52,9,5,5,0,0,0,42,9a5,5,0,0,0,4,4.9V18a3,3,0,0,1-3,3H36v2h7A5,5,0,0,0,48,18Z"/></g>
</svg>