<svg xmlns="http://www.w3.org/2000/svg" xmlns:xlink="http://www.w3.org/1999/xlink" version="1.1" x="0px" y="0px" viewBox="0 0 512 640" style="enable-background:new 0 0 512 512;" xml:space="preserve"><title>PredictiveAnalytics-datamining-datascientist-prediction-graphanalysis</title><ellipse fill="#FFFFFF" cx="376" cy="360" rx="53.8" ry="8"/><path fill="#FFFFFF" d="M320,376.4v38.3c4.1,3.4,23.7,9.3,56,9.3s51.9-5.9,56-9.3v-38.3c-18.7,7.1-48,7.6-56,7.6S338.7,383.5,320,376.4z"/><rect fill="#FFFFFF" x="128" y="208" width="16" height="64"/><rect fill="#FFFFFF" x="192" y="168" width="16" height="104"/><path fill="#FFFFFF" d="M320,432.4v38.3c4.1,3.4,23.8,9.3,56,9.3s51.9-5.9,56-9.3v-38.3c-18.7,7.1-48,7.6-56,7.6S338.7,439.5,320,432.4z"/><path fill="#FFFFFF" d="M136,416H91.3l52.7,52.7V424C144,419.6,140.4,416,136,416z"/><path fill="#FFFFFF" d="M372,159.3L359.3,172l74.3,74.3c3.5,3.5,9.2,3.5,12.7,0s3.5-9.2,0-12.7L372,159.3z"/><path fill="#FFFFFF" d="M388.1,120.6l24-4.8c-12.4-7.2-26.4-11.2-40.8-11.8L355.3,120l16.7,16.7L388.1,120.6z"/><path fill="#FFFFFF" d="M368,323.3L340.7,296H264c-13.2,0-24-10.8-24-24V80c0-13.2,10.8-24,24-24h168V40c0-4.4-3.6-8-8-8H88c-4.4,0-8,3.6-8,8v360  h56c13.2,0,24,10.8,24,24v56h146.9c-1.9-2.2-2.9-5.1-2.9-8V360c0-22.8,60-24,72-24c8,0,37.3,0.5,56,7.6V296h-36.7L368,323.3z   M152,100.7l16,16l50.3-50.3l11.3,11.3L168,139.3l-16-16l-34.3,34.3l-11.3-11.3L152,100.7z M104,272h8v-80h48v80h16V152h48v136H104  V272z M280,416h-96v-16h96V416z M280,376H104v-16h176V376z M280,336H104v-16h176V336z"/><path fill="#FFFFFF" d="M472,72H264c-4.4,0-8,3.6-8,8v192c0,4.4,3.6,8,8,8h83.3l20.7,20.7l20.7-20.7H472c4.4,0,8-3.6,8-8V80  C480,75.6,476.4,72,472,72z M457.7,257.7c-9.8,9.7-25.6,9.7-35.3,0L348,183.3l-20.6,20.6l-11,55.2l-15.5-20.7  c-13.5-18-20.8-39.9-20.8-62.4v-3.3L364.7,88h3.3c22.5,0,44.4,7.3,62.4,20.8l20.7,15.5l-55.2,11L383.3,148l74.3,74.3  C467.4,232.1,467.4,247.9,457.7,257.7C457.7,257.7,457.7,257.7,457.7,257.7z"/><path fill="#FFFFFF" d="M296.1,179.3c0.6,14.4,4.6,28.4,11.8,40.8l4.8-24l24.1-24.1L320,155.3L296.1,179.3z"/><rect fill="#FFFFFF" x="337" y="134.2" transform="matrix(0.7071 -0.7071 0.7071 0.7071 -1.8972 287.4197)" width="17.9" height="23.6"/></svg>