<svg xmlns="http://www.w3.org/2000/svg" data-name="Layer 1" viewBox="0 0 64 80" x="0px" y="0px"><path fill="#FFFFFF" d="M46.91,36.05l.18-2a13.22,13.22,0,0,0-2.18,0l.18,2A9.22,9.22,0,0,1,46.91,36.05Z"/><path fill="#FFFFFF" d="M53.28,39.14a11.31,11.31,0,0,1,1.13,1.44l1.68-1.07a11.26,11.26,0,0,0-1.35-1.73Z"/><path fill="#FFFFFF" d="M56,46h2a11.92,11.92,0,0,0-.86-4.46l-1.86.75A9.8,9.8,0,0,1,56,46Z"/><path fill="#FFFFFF" d="M53.11,36.32a11.79,11.79,0,0,0-3.84-1.86l-.54,1.92a10.13,10.13,0,0,1,3.2,1.56Z"/><path fill="#FFFFFF" d="M38.76,39.09l-1.44-1.38A11,11,0,0,0,36,39.44l1.68,1.08A9.73,9.73,0,0,1,38.76,39.09Z"/><path fill="#FFFFFF" d="M36.74,42.22l-1.84-.76A11.68,11.68,0,0,0,34,46h2A10,10,0,0,1,36.74,42.22Z"/><path fill="#FFFFFF" d="M43.27,36.38l-.54-1.92A11.75,11.75,0,0,0,39,36.28l1.18,1.62A9.89,9.89,0,0,1,43.27,36.38Z"/><path fill="#FFFFFF" d="M46,49a3,3,0,0,0,2.7-4.29l3.67-3.66L51,39.63,47.29,43.3A3,3,0,1,0,46,49Z"/><path fill="#FFFFFF" d="M46,56a10,10,0,0,1-9.84-8.18l-2,.36a12,12,0,0,0,23.6,0l-2-.36A10,10,0,0,1,46,56Z"/><path fill="#FFFFFF" d="M51.54,31H54V29H49V27h5V25H49V23h5V21H49V19h5V17H49V15h5V13H49V11h5V9H49V8a1,1,0,0,0-1-1H47V2H45V7H43V2H41V7H39V2H37V7H35V2H33V7H31V2H29V7H27V2H25V7H23V2H21V7H19V2H17V7H15V2H13V7H11V2H9V7H8A1,1,0,0,0,7,8V9H2v2H7v2H2v2H7v2H2v2H7v2H2v2H7v2H2v2H7v2H2v2H7v2H2v2H7v2H2v2H7v2H2v2H7v2H2v2H7v1a1,1,0,0,0,1,1H9v5h2V49h2v5h2V49h2v5h2V49h2v5h2V49h2v5h2V49h2v5h2V51.51A16,16,0,1,0,51.54,31ZM43,11h2v2H43ZM11,11h2v2H11Zm2,34H11V43h2Zm17.53-3H14a1,1,0,0,1-1-1V20a1,1,0,0,1,.29-.71l5-5A1,1,0,0,1,19,14H42a1,1,0,0,1,1,1V30.29h0a16.77,16.77,0,0,0-2,.52h0V16H19.41L15,20.41V40H31.18A15.56,15.56,0,0,0,30.53,42Zm1.88-13-1.7,1.71-1.42-1.42,2-2A1,1,0,0,1,32,27h5V20H21.41L19,22.41V24h8.59l2.7-2.71,1.42,1.42-3,3A1,1,0,0,1,28,26H19v4h8a1,1,0,0,1,.71.29l2,2-1.42,1.42L26.59,32H19v4H33.53a16.07,16.07,0,0,0-1.37,2H18a1,1,0,0,1-1-1V22a1,1,0,0,1,.29-.71l3-3A1,1,0,0,1,21,18H38a1,1,0,0,1,1,1V31.63h0l-2,1.15V29ZM46,60A14,14,0,1,1,60,46,14,14,0,0,1,46,60Z"/></svg>