<svg xmlns="http://www.w3.org/2000/svg" data-name="Layer 1" viewBox="0 0 64 80" x="0px" y="0px"><path fill="#FFFFFF" d="M54,10a4.05,4.05,0,1,0-3.43-2L39.74,18.85a12.05,12.05,0,0,0-2.53-1.64l3.5-3.5A1,1,0,0,0,41,12.8l-.45-2.23a3,3,0,1,0-2,.39l.34,1.71-3.76,3.76a12,12,0,0,0-9.15,22v2.25A14,14,0,0,1,32,14a9.1,9.1,0,0,1,.91,0,1,1,0,0,0,.76-.26A1,1,0,0,0,34,13V3a1,1,0,0,0-1-1H28a1,1,0,0,0-1,1V6.58a21.94,21.94,0,0,0-6.61,2.73L17.86,6.78a1,1,0,0,0-1.42,0l-5.66,5.66a1,1,0,0,0,0,1.42l2.53,2.53A21.94,21.94,0,0,0,10.58,23H7a1,1,0,0,0-1,1v8a1,1,0,0,0,1,1h3.58a21.94,21.94,0,0,0,2.73,6.61l-2.53,2.53a1,1,0,0,0,0,1.42l5.66,5.66a1,1,0,0,0,1.42,0l2.53-2.53A21.55,21.55,0,0,0,25,48.85V52H22a1,1,0,0,0-1,1v4a1,1,0,0,0,1,1h3.7A7,7,0,0,0,32,62a7,7,0,0,0,6.32-4H42a1,1,0,0,0,1-1V53a1,1,0,0,0-1-1H39V48.85a21.55,21.55,0,0,0,4.61-2.16l2.53,2.53a1,1,0,0,0,1.42,0l5.66-5.66a1,1,0,0,0,0-1.42l-2.53-2.53A21.94,21.94,0,0,0,53.42,33H57a1,1,0,0,0,1-1V27a1,1,0,0,0-1-1H47a1,1,0,0,0-1,1.09A9.1,9.1,0,0,1,46,28a14,14,0,0,1-8,12.63V38.38a11.94,11.94,0,0,0,5.57-13.53l3.76-3.76,1.71.34a3,3,0,1,0,.39-2L47.2,19a1,1,0,0,0-.91.27l-3.5,3.5a12.05,12.05,0,0,0-1.64-2.53L52,9.43A4,4,0,0,0,54,10ZM41,54v2H23V54ZM28,41.41V39.3a11.78,11.78,0,0,0,8,0v2.11a13.85,13.85,0,0,1-8,0ZM42,28A10,10,0,0,1,32,38v-3l-2,0a2,2,0,0,1-2-2,2,2,0,0,1,2-2h2V28H29.05A0,0,0,0,1,29,28V26a2,2,0,0,0-1.79-2A2.11,2.11,0,0,0,25,26.19V28A0,0,0,0,1,25,28H22A10,10,0,0,1,32,18V21a0,0,0,0,0,0,.05h1.76A2.11,2.11,0,0,1,36,23.21,2,2,0,0,1,34,25h-2a0,0,0,0,0,0,.05V28h3v2a2,2,0,0,0,2,2,2,2,0,0,0,2-2l0-2Z"/></svg>