<svg xmlns="http://www.w3.org/2000/svg" xmlns:xlink="http://www.w3.org/1999/xlink" version="1.1" x="0px" y="0px" viewBox="0 0 32 40" enable-background="new 0 0 32 32" xml:space="preserve"><g>
<path fill="#FFFFFF" d="M24.0004883,9.5351563l2.5546875-1.703125C26.8334961,7.6464844,27.0004883,7.3339844,27.0004883,7l-0.0003052-1.2783203   C27.5950317,5.3746338,28,4.7366943,28,4c0-1.1025391-0.8969727-2-2-2s-2,0.8974609-2,2   c0,0.7368774,0.4051514,1.374939,1.0002441,1.7219238l0.0002441,0.7429199l-2.5546875,1.703125   C22.1674805,8.3535156,22.0004883,8.6650391,22.0004883,9L22,11h2L24.0004883,9.5351563z"/>
<path fill="#FFFFFF" d="M5,5.7218018V7c0,0.3339844,0.1669922,0.6464844,0.4453125,0.8320313L8,9.5351563V11h2V9   c0-0.3339844-0.1669922-0.6464844-0.4453125-0.8320313L7,6.4648438v-0.743042C7.5949097,5.3747559,8,4.7367554,8,4   c0-1.1025391-0.8969727-2-2-2S4,2.8974609,4,4C4,4.7367554,4.4050903,5.3747559,5,5.7218018z"/>
<path fill="#FFFFFF" d="M29,26H3c-0.5522461,0-1,0.4476929-1,1c0,1.6568604,1.3431396,3,3,3h22c1.6568604,0,3-1.3431396,3-3   C30,26.4476929,29.5523071,26,29,26z"/>
<path fill="#FFFFFF" d="M28,14c0-1.1046143-0.8954468-2-2-2h-4v2c0,1.1025391-0.8969727,2-2,2h-8c-1.1030273,0-2-0.8974609-2-2v-2H6   c-1.1045532,0-2,0.8953857-2,2v11h24V14z M14.8535156,22.1464844c0.1953125,0.1953125,0.1953125,0.5117188,0,0.7070313   C14.7558594,22.9511719,14.6279297,23,14.5,23s-0.2558594-0.0488281-0.3535156-0.1464844l-2-2   c-0.1953125-0.1953125-0.1953125-0.5117188,0-0.7070313l2-2c0.1953125-0.1953125,0.5117188-0.1953125,0.7070313,0   s0.1953125,0.5117188,0,0.7070313L13.2070313,20.5L14.8535156,22.1464844z M19.8535156,20.8535156l-2,2   C17.7558594,22.9511719,17.6279297,23,17.5,23s-0.2558594-0.0488281-0.3535156-0.1464844   c-0.1953125-0.1953125-0.1953125-0.5117188,0-0.7070313L18.7929688,20.5l-1.6464844-1.6464844   c-0.1953125-0.1953125-0.1953125-0.5117188,0-0.7070313s0.5117188-0.1953125,0.7070313,0l2,2   C20.0488281,20.3417969,20.0488281,20.6582031,19.8535156,20.8535156z"/>
<polygon fill="#FFFFFF" points="18,2 18,5 21,5  "/>
<path fill="#FFFFFF" d="M12,15h8c0.5523071,0,1-0.4477539,1-1V6h-3c-0.5523071,0-1-0.4476929-1-1V2h-5c-0.5523071,0-1,0.4476929-1,1v11   C11,14.5522461,11.4476929,15,12,15z M13.5,7h5C18.7763672,7,19,7.2236328,19,7.5S18.7763672,8,18.5,8h-5   C13.2236328,8,13,7.7763672,13,7.5S13.2236328,7,13.5,7z M13.5,9h5C18.7763672,9,19,9.2236328,19,9.5S18.7763672,10,18.5,10h-5   C13.2236328,10,13,9.7763672,13,9.5S13.2236328,9,13.5,9z M13.5,11h5c0.2763672,0,0.5,0.2236328,0.5,0.5S18.7763672,12,18.5,12h-5   c-0.2763672,0-0.5-0.2236328-0.5-0.5S13.2236328,11,13.5,11z"/></g>
</svg>