<svg xmlns="http://www.w3.org/2000/svg" xmlns:xlink="http://www.w3.org/1999/xlink" version="1.1" x="0px" y="0px" viewBox="0 0 64 80" style="enable-background:new 0 0 64 64;" xml:space="preserve"><g><path fill="#FFFFFF" d="M19.56,40.96V51.4h4.72V31.84c0-0.51-0.31-0.96-0.78-1.15l-8.42-3.42v10.46h1.24C18.11,37.72,19.56,39.17,19.56,40.96z"/><path fill="#FFFFFF" d="M15.08,25.11l9.17,3.73c1.23,0.49,2.03,1.67,2.03,3.01V51.4H31V26.14c-2.28-0.46-4-2.48-4-4.9c0-2.76,2.24-5,5-5   s5,2.24,5,5c0,2.41-1.72,4.43-4,4.9V51.4h4.72V31.84c0-1.33,0.8-2.51,2.04-3.01l9.16-3.73V12.6H15.08V25.11z"/><circle fill="#FFFFFF" cx="32" cy="21.24" r="3"/><path fill="#FFFFFF" d="M46.44,40.96V51.4h2.48V39.72h-1.24C47,39.72,46.44,40.28,46.44,40.96z"/><path fill="#FFFFFF" d="M17.56,40.96c0-0.68-0.56-1.24-1.24-1.24h-1.24V51.4h2.48V40.96z"/><circle fill="#FFFFFF" cx="57" cy="22.48" r="2"/><path fill="#FFFFFF" d="M47.92,5H16.08c-0.55,0-1,0.45-1,1v4.6h33.84V6C48.92,5.45,48.47,5,47.92,5z M34.8,8.8h-5.6c-0.55,0-1-0.45-1-1s0.45-1,1-1   h5.6c0.55,0,1,0.45,1,1S35.35,8.8,34.8,8.8z"/><circle fill="#FFFFFF" cx="7" cy="22.48" r="2"/><circle fill="#FFFFFF" cx="7" cy="38.72" r="2"/><path fill="#FFFFFF" d="M15.08,58c0,0.55,0.45,1,1,1h31.84c0.55,0,1-0.45,1-1v-4.6H15.08V58z M29.2,55.2h5.6c0.55,0,1,0.45,1,1s-0.45,1-1,1h-5.6   c-0.55,0-1-0.45-1-1S28.65,55.2,29.2,55.2z"/><path fill="#FFFFFF" d="M39.72,31.84V51.4h4.72V40.96c0-1.79,1.45-3.24,3.24-3.24h1.24V27.26l-8.41,3.42C40.03,30.88,39.72,31.33,39.72,31.84z"/><circle fill="#FFFFFF" cx="57" cy="38.72" r="2"/><path fill="#FFFFFF" d="M50.92,24.29v2.16l3.14-1.28c-0.45-0.49-0.79-1.1-0.95-1.77L50.92,24.29z"/><path fill="#FFFFFF" d="M11,38.72c0,0.35-0.06,0.68-0.14,1h2.22v-2h-2.22C10.94,38.04,11,38.37,11,38.72z"/><path fill="#FFFFFF" d="M50.92,37.72v2h2.22c-0.08-0.32-0.14-0.65-0.14-1s0.06-0.68,0.14-1H50.92z"/><path fill="#FFFFFF" d="M9.94,25.17l3.14,1.28v-2.16l-2.2-0.89C10.72,24.07,10.39,24.68,9.94,25.17z"/></g></svg>