<svg xmlns="http://www.w3.org/2000/svg" xmlns:xlink="http://www.w3.org/1999/xlink" version="1.1" x="0px" y="0px" viewBox="0 0 66 82.5" enable-background="new 0 0 66 66" xml:space="preserve"><g><g><g><path fill="#FFFFFF" d="M65,26.7c0,5.5-4.5,9.9-9.9,9.9h-4.8V18.2c0-2.7-2.2-4.9-4.9-4.9H20.6c-2.7,0-4.9,2.2-4.9,4.9v18.4h-4.8     c-5.5,0-9.9-4.5-9.9-9.9c0-4.6,3.1-8.5,7.4-9.6c-0.2-0.9-0.3-1.9-0.3-2.8C8.1,7,14,1.1,21.3,1.1c5.1,0,9.7,3,11.9,7.5     C35.3,6.3,38.4,5,41.6,5c6.5,0,11.8,5.3,11.8,11.8v0.1c0.6-0.1,1.1-0.2,1.7-0.2C60.5,16.7,65,21.2,65,26.7z"/></g></g><g><g><g><path fill="#FFFFFF" d="M42.9,41.4c0,1.3-1.1,2.4-2.4,2.4h-15c-1.3,0-2.4-1.1-2.4-2.4c0-1.2,0.8-2.1,1.9-2.3c0.2,0,0.4-0.2,0.5-0.3      c0.1-0.2,0.1-0.4,0.1-0.6c-0.1-0.3-0.1-0.6-0.1-0.9c0-1.9,1.6-3.5,3.5-3.5c1.5,0,2.8,0.9,3.3,2.3c0.1,0.3,0.3,0.4,0.6,0.5      c0.3,0,0.5-0.1,0.7-0.3c0.6-0.7,1.4-1.2,2.4-1.2c1.7,0,3,1.3,3,3c0,0.1,0,0.2,0,0.3c0,0.3,0.1,0.5,0.3,0.7      c0.2,0.2,0.5,0.2,0.7,0.1c0.2-0.1,0.4-0.1,0.6-0.1C41.8,39,42.9,40.1,42.9,41.4z"/></g></g><g><g><path fill="#FFFFFF" d="M17.2,22.3v35.2h31.6V22.3H17.2z M40.5,45.3h-15c-2.1,0-3.9-1.7-3.9-3.9c0-1.6,1-3,2.4-3.6c0-0.2,0-0.4,0-0.6      c0-2.7,2.2-5,5-5c1.7,0,3.3,0.9,4.2,2.3c0.8-0.6,1.7-0.9,2.8-0.9c2.3,0,4.2,1.8,4.5,4h0.1c2.1,0,3.9,1.7,3.9,3.9      C44.4,43.5,42.7,45.3,40.5,45.3z"/></g></g><g><g><path fill="#FFFFFF" d="M45.4,14.8H20.6c-1.9,0-3.4,1.5-3.4,3.4v2.6h31.6v-2.6C48.8,16.3,47.3,14.8,45.4,14.8z M37.1,18.5h-8.2      c-0.4,0-0.8-0.3-0.8-0.8c0-0.4,0.3-0.8,0.8-0.8h8.2c0.4,0,0.8,0.3,0.8,0.8C37.8,18.2,37.5,18.5,37.1,18.5z"/></g></g><g><g><path fill="#FFFFFF" d="M17.2,59v2.6c0,1.9,1.5,3.4,3.4,3.4h24.9c1.9,0,3.4-1.5,3.4-3.4V59H17.2z M34.2,62.7h-2.3c-0.4,0-0.8-0.3-0.8-0.8      c0-0.4,0.3-0.8,0.8-0.8h2.3c0.4,0,0.8,0.3,0.8,0.8C34.9,62.4,34.6,62.7,34.2,62.7z"/></g></g></g></g></svg>