<svg xmlns="http://www.w3.org/2000/svg" xmlns:xlink="http://www.w3.org/1999/xlink" version="1.1" x="0px" y="0px" viewBox="0 0 65 81.25" enable-background="new 0 0 65 65" xml:space="preserve"><g><g><path fill="#FFFFFF" d="M14.3,13.34v1.9c0,1.87,1.52,3.38,3.39,3.38h0.49c0.02-0.66,0.09-1.31,0.2-1.95h-0.69c-0.8,0-1.44-0.64-1.44-1.43v-1.9    c1.66-0.44,2.89-1.93,2.89-3.72c0-2.13-1.73-3.86-3.86-3.86c-2.13,0-3.86,1.73-3.86,3.86C11.42,11.41,12.65,12.9,14.3,13.34z     M15.28,7.71c1.05,0,1.91,0.85,1.91,1.91c0,1.05-0.86,1.91-1.91,1.91c-1.06,0-1.91-0.86-1.91-1.91    C13.37,8.56,14.22,7.71,15.28,7.71z"/></g><g><path fill="#FFFFFF" d="M12.62,51.66v-6.54c0-0.79,0.65-1.43,1.44-1.43h1.44v-1.95h-1.44c-1.87,0-3.38,1.52-3.38,3.38v6.54    c-1.66,0.44-2.89,1.93-2.89,3.72c0,2.13,1.73,3.86,3.86,3.86s3.86-1.73,3.86-3.86C15.51,53.59,14.28,52.1,12.62,51.66z     M11.65,57.29c-1.05,0-1.91-0.85-1.91-1.91c0-1.05,0.86-1.91,1.91-1.91s1.91,0.86,1.91,1.91C13.56,56.44,12.7,57.29,11.65,57.29z"/></g><g><path fill="#FFFFFF" d="M18.17,24.57H8.08c-0.44-1.66-1.93-2.89-3.72-2.89c-2.13,0-3.86,1.73-3.86,3.86c0,2.13,1.73,3.86,3.86,3.86    c1.79,0,3.28-1.23,3.72-2.88h7.97c0.47-0.85,1.22-1.53,2.12-1.91V24.57z M4.36,27.45c-1.05,0-1.91-0.85-1.91-1.91    c0-1.05,0.86-1.91,1.91-1.91c1.05,0,1.91,0.86,1.91,1.91C6.27,26.6,5.41,27.45,4.36,27.45z"/></g><g><path fill="#FFFFFF" d="M10.75,38.68c1.79,0,3.29-1.23,3.72-2.88h1.03v-1.95h-1.03c-0.43-1.66-1.93-2.89-3.72-2.89c-2.12,0-3.85,1.73-3.85,3.86    C6.9,36.95,8.63,38.68,10.75,38.68z M10.75,32.91c1.06,0,1.92,0.86,1.92,1.91c0,1.06-0.86,1.91-1.92,1.91    c-1.05,0-1.91-0.85-1.91-1.91C8.84,33.77,9.7,32.91,10.75,32.91z"/></g><g><path fill="#FFFFFF" d="M48.75,13.34v1.9c0,0.79-0.64,1.43-1.43,1.43h-0.77c0.11,0.64,0.18,1.29,0.2,1.95h0.57c1.86,0,3.38-1.51,3.38-3.38v-1.9    c1.65-0.44,2.88-1.93,2.88-3.72c0-2.13-1.73-3.86-3.86-3.86c-2.12,0-3.86,1.73-3.86,3.86C45.86,11.41,47.09,12.9,48.75,13.34z     M49.72,7.71c1.06,0,1.91,0.85,1.91,1.91c0,1.05-0.85,1.91-1.91,1.91c-1.05,0-1.91-0.86-1.91-1.91    C47.81,8.56,48.67,7.71,49.72,7.71z"/></g><g><path fill="#FFFFFF" d="M54.32,51.66v-6.54c0-1.86-1.51-3.38-3.38-3.38h-1.5v1.95h1.5c0.79,0,1.44,0.64,1.44,1.43v6.54    c-1.66,0.44-2.89,1.93-2.89,3.72c0,2.13,1.73,3.86,3.86,3.86c2.13,0,3.86-1.73,3.86-3.86C57.21,53.59,55.98,52.1,54.32,51.66z     M53.35,57.29c-1.05,0-1.91-0.85-1.91-1.91c0-1.05,0.86-1.91,1.91-1.91c1.05,0,1.91,0.86,1.91,1.91    C55.26,56.44,54.4,57.29,53.35,57.29z"/></g><g><path fill="#FFFFFF" d="M60.64,21.68c-1.79,0-3.28,1.23-3.72,2.89H46.76v0.03c0.91,0.38,1.66,1.06,2.14,1.92h8.02c0.44,1.65,1.93,2.88,3.72,2.88    c2.13,0,3.86-1.73,3.86-3.86C64.5,23.41,62.77,21.68,60.64,21.68z M60.64,27.45c-1.05,0-1.91-0.85-1.91-1.91    c0-1.05,0.86-1.91,1.91-1.91c1.05,0,1.91,0.86,1.91,1.91C62.55,26.6,61.69,27.45,60.64,27.45z"/></g><g><path fill="#FFFFFF" d="M54.25,30.96c-1.79,0-3.29,1.23-3.72,2.89h-1.09v1.95h1.09c0.43,1.65,1.93,2.88,3.72,2.88c2.12,0,3.86-1.73,3.86-3.86    C58.11,32.69,56.37,30.96,54.25,30.96z M54.25,36.73c-1.06,0-1.92-0.85-1.92-1.91c0-1.05,0.86-1.91,1.92-1.91    c1.05,0,1.91,0.86,1.91,1.91C56.16,35.88,55.3,36.73,54.25,36.73z"/></g><g><path fill="#FFFFFF" d="M45.085,26.264h-0.322v-7.157c0-6.779-5.516-12.295-12.295-12.295c-6.779,0-12.295,5.516-12.295,12.295v7.157h-0.304    c-1.316,0-2.369,1.053-2.369,2.369v1.772h1.965c0.807,0,1.457,0.632,1.457,1.421c0,0.79-0.649,1.421-1.457,1.421H17.5v0.737h1.965    c0.807,0,1.457,0.632,1.457,1.421c0,0.79-0.649,1.421-1.457,1.421H17.5v0.719h1.965c0.807,0,1.457,0.632,1.457,1.421    c0,0.79-0.649,1.421-1.457,1.421H17.5v0.719h1.965c0.807,0,1.457,0.632,1.457,1.421c0,0.79-0.649,1.421-1.457,1.421H17.5v1.79    c0,1.299,1.053,2.351,2.369,2.351h25.216c1.299,0,2.351-1.053,2.351-2.351V28.633C47.436,27.317,46.383,26.264,45.085,26.264z     M34.556,40.25c0.053,0.175-0.07,0.351-0.246,0.351h-3.685c-0.175,0-0.298-0.175-0.245-0.351l0.649-2.001    c-0.527-0.404-0.86-1.053-0.86-1.79c0-1.264,1.035-2.299,2.299-2.299c1.263,0,2.299,1.035,2.299,2.299    c0,0.737-0.333,1.386-0.86,1.79L34.556,40.25z M41.457,26.264H23.479v-7.157c0-4.956,4.033-8.989,8.989-8.989    c4.956,0,8.989,4.033,8.989,8.989V26.264z"/></g></g></svg>