<svg xmlns="http://www.w3.org/2000/svg" viewBox="0 0 32 40" x="0px" y="0px"><g><path fill="#FFFFFF" d="M18.73877,31.0415H10.062a.49971.49971,0,0,1-.5-.5V21.522A9.88785,9.88785,0,0,1,7.57764,8.60059H5.18652c-.048.55563.1781,1.40789-.30857,1.57567a.49874.49874,0,0,1-.54494-.10839L2.86572,8.60059h-.6665A1.08966,1.08966,0,0,1,1.11084,7.51221V2.04688A1.08966,1.08966,0,0,1,2.19922.9585h9.38769a1.07674,1.07674,0,0,1,1.08838,1.08838V4.63281a9.91321,9.91321,0,0,1,6.64942.11865V2.04688A1.07674,1.07674,0,0,1,20.41309.9585h9.38769a1.08966,1.08966,0,0,1,1.08838,1.08838V7.51221a1.08966,1.08966,0,0,1-1.08838,1.08838h-.6665L27.667,10.06787a.50032.50032,0,0,1-.54492.1084c-.48641-.16692-.26077-1.021-.30859-1.57568H24.10059a9.87983,9.87983,0,0,1,1.29248,7.69726l2.58886,5.10986a.50319.50319,0,0,1-.44581.72607l-2.415,0v3.03027a2.25017,2.25017,0,0,1-2.24755,2.24756H19.23877V30.5415A.49971.49971,0,0,1,18.73877,31.0415Zm-8.17676-1h7.67676V27.41162h-1.668a2.25017,2.25017,0,0,1-2.24756-2.24756v-3.958a.50009.50009,0,0,1,1,0v3.958a1.24887,1.24887,0,0,0,1.24756,1.24756h6.30274a1.24886,1.24886,0,0,0,1.24755-1.24756V21.63379a.49972.49972,0,0,1,.5-.5h2.10108l-2.29883-4.53711c-.14271-.59643.35624-1.771.25033-2.65674a8.74919,8.74919,0,0,0-1.79476-5.33935H20.41309a1.08966,1.08966,0,0,1-1.08838-1.08838V5.82959a8.92606,8.92606,0,0,0-6.64942-.13574V7.51221a1.08966,1.08966,0,0,1-1.08838,1.08838H8.7998a8.88035,8.88035,0,0,0,2.82093,13.1108.5003.5003,0,0,1,.20056.67826c-.31444.53861-.88966.08964-1.25928-.14111ZM23.12744,7.60059h4.186c.51575.01372.52375.51523.5.90673.2161-.16726.7966-.95241,1.11374-.90676l.87356,0a.09466.09466,0,0,0,.08838-.08838V2.04688a.08853.08853,0,0,0-.08838-.08838H20.41309a.08279.08279,0,0,0-.08838.08838V5.49609c-.00823.02221.00592,1.99316,0,2.01616a.08763.08763,0,0,0,.0884.08834ZM2.19922,1.9585a.08853.08853,0,0,0-.08838.08838V7.51221a.09466.09466,0,0,0,.08838.08838h.87353c.323-.04354.893.73832,1.11377.90673-.0221-.39447-.018-.891.5-.90672,1.70553-.00235,5.21333.00167,6.90035,0a.0876.0876,0,0,0,.08838-.08837c-.005-.02686.00362-2.14321,0-2.16841l0-3.29692a.08279.08279,0,0,0-.08838-.08838ZM21.60449,17.27686H20.37988a.49972.49972,0,0,1-.5-.5V16.147l-.521.0083a1.123,1.123,0,0,1-1.12207,1.12159H13.76611A1.1232,1.1232,0,0,1,12.644,16.147h-.521v.62989a.49972.49972,0,0,1-.5.5H10.39844a.50009.50009,0,0,1,0-1H11.123V15.647c.024-.73891,1.03654-.444,1.521-.5v-.72754h-1.4292a.5.5,0,0,1,0-1H12.644v-.72705c-.48392-.05616-1.49679.23919-1.521-.5V11.562h-.72461a.50009.50009,0,0,1,0-1H11.623a.49972.49972,0,0,1,.5.5v.63037l.521-.0083A1.12342,1.12342,0,0,1,13.76611,10.562h4.47071a1.12361,1.12361,0,0,1,1.12207,1.13037h.521V11.062a.49972.49972,0,0,1,.5-.5h1.22461a.50009.50009,0,0,1,0,1h-.72458v.63037c-.024.73892-1.03654.444-1.521.5v.72705h1.4292a.5.5,0,0,1,0,1h-1.4292V15.147c.48392.05617,1.49679-.23919,1.521.5v.6299h.72461A.50009.50009,0,0,1,21.60449,17.27686ZM13.76611,11.562a.12212.12212,0,0,0-.12207.12207v4.47119a.122.122,0,0,0,.12207.12159h4.47071a.122.122,0,0,0,.12207-.12159V11.68408a.12212.12212,0,0,0-.12207-.12207Zm3.19141,4.12793H15.04541a.8151.8151,0,0,1-.81445-.814v-1.9126a.8152.8152,0,0,1,.81445-.81445h1.91211a.8152.8152,0,0,1,.81445.81445V14.876A.8151.8151,0,0,1,16.95752,15.68994Zm-1.72656-1h1.541v-1.541H15.231ZM28.11475,6.84277H22.09424a.50009.50009,0,0,1,0-1l6.02048,0A.5001.5001,0,0,1,28.11475,6.84277Zm-18.20459,0h-6.021a.50009.50009,0,0,1,0-1l6.021,0A.5001.5001,0,0,1,9.91016,6.84277ZM28.11475,5.27783H22.09424a.5001.5001,0,0,1,0-1h6.02048A.5001.5001,0,0,1,28.11475,5.27783Zm-18.20459,0h-6.021a.5001.5001,0,0,1,0-1h6.021A.5001.5001,0,0,1,9.91016,5.27783ZM28.11475,3.71289H22.09424a.5001.5001,0,0,1,0-1h6.02048A.5001.5001,0,0,1,28.11475,3.71289Zm-18.20459,0h-6.021a.5001.5001,0,0,1,0-1h6.021A.5001.5001,0,0,1,9.91016,3.71289Z"/></g></svg>