<svg xmlns="http://www.w3.org/2000/svg" xmlns:xlink="http://www.w3.org/1999/xlink" viewBox="0 0 200 250" version="1.1" x="0px" y="0px">
<title>computer-vision</title>
<g stroke="none" stroke-width="1" fill="none" fill-rule="evenodd"><g transform="translate(38.000000, 43.000000)" fill="#000000" fill-rule="nonzero">
<path fill="#FFFFFF" d="M62.7682927,21.8770492 C82.9234369,21.8770492 101.05647,33.7409233 117.093721,57.1044471 C118.49807,59.150343 118.49807,61.8496586 117.093721,63.8955534 C101.056469,87.2590768 82.9234368,99.1229508 62.7682927,99.1229508 C42.6131485,99.1229508 24.4801156,87.2590767 8.44286454,63.8955529 C7.03851533,61.849657 7.0385155,59.1503414 8.44286485,57.1044466 C24.4801159,33.7409232 42.6131486,21.8770492 62.7682927,21.8770492 Z M62.7682927,27.8770492 C44.836701,27.8770492 28.4016945,38.6299579 13.3896026,60.4999999 C28.4016943,82.370042 44.8367008,93.1229508 62.7682927,93.1229508 C80.6998844,93.1229508 97.1348908,82.3700421 112.146983,60.5000001 C97.134891,38.629958 80.6998845,27.8770492 62.7682927,27.8770492 Z M63,46.5 C70.7319865,46.5 77,52.7680135 77,60.5 C77,68.2319865 70.7319865,74.5 63,74.5 C55.2680135,74.5 49,68.2319865 49,60.5 C49,52.7680135 55.2680135,46.5 63,46.5 Z M63,52.5 C58.581722,52.5 55,56.081722 55,60.5 C55,64.918278 58.581722,68.5 63,68.5 C67.418278,68.5 71,64.918278 71,60.5 C71,56.081722 67.418278,52.5 63,52.5 Z"/>
<path fill="#FFFFFF" d="M61.8535534,33.4393398 C63.5104076,33.4393398 64.8535534,34.7824856 64.8535534,36.4393398 C64.8535534,38.0961941 63.5104076,39.4393398 61.8535534,39.4393398 C49.9794313,39.4393398 40.3535534,49.0652177 40.3535534,60.9393398 C40.3535534,72.8134619 49.9794313,82.4393398 61.8535534,82.4393398 C73.7276755,82.4393398 83.3535534,72.8134619 83.3535534,60.9393398 C83.3535534,59.2824856 84.6966991,57.9393398 86.3535534,57.9393398 C88.0104076,57.9393398 89.3535534,59.2824856 89.3535534,60.9393398 C89.3535534,76.1271704 77.041384,88.4393398 61.8535534,88.4393398 C46.6657228,88.4393398 34.3535534,76.1271704 34.3535534,60.9393398 C34.3535534,45.7515092 46.6657228,33.4393398 61.8535534,33.4393398 Z M81.2985834,41.493735 C83.6592017,43.8543533 85.5432582,46.5818776 86.8966544,49.5620913 C87.5817426,51.0706735 86.9141688,52.8489947 85.4055867,53.5340829 C83.8970045,54.2191711 82.1186833,53.5515974 81.4335951,52.0430152 C80.3768594,49.7160557 78.905378,47.5858109 77.0559427,45.7363757 C75.8843698,44.5648028 75.8843698,42.6653078 77.0559427,41.493735 C78.2275156,40.3221621 80.1270105,40.3221621 81.2985834,41.493735 Z M71,35 C72.6568542,35 74,36.3431458 74,38 C74,39.6568542 72.6568542,41 71,41 C69.3431458,41 68,39.6568542 68,38 C68,36.3431458 69.3431458,35 71,35 Z" transform="translate(61.853553, 60.939340) rotate(-360.000000) translate(-61.853553, -60.939340) "/>
<path fill="#FFFFFF" d="M121,92 C122.656854,92 124,93.3431458 124,95 L124,112 C124,115.313708 121.313708,118 118,118 L101,118 C99.3431458,118 98,116.656854 98,115 C98,113.343146 99.3431458,112 101,112 L118,112 L118,95 C118,93.3431458 119.343146,92 121,92 Z M3,92 C4.65685425,92 6,93.3431458 6,95 L6,112 L23,112 C24.6568542,112 26,113.343146 26,115 C26,116.656854 24.6568542,118 23,118 L6,118 C2.6862915,118 0,115.313708 0,112 L0,95 C0,93.3431458 1.34314575,92 3,92 Z M118,0 C121.313708,0 124,2.6862915 124,6 L124,23 C124,24.6568542 122.656854,26 121,26 C119.343146,26 118,24.6568542 118,23 L118,6 L101,6 C99.3431458,6 98,4.65685425 98,3 C98,1.34314575 99.3431458,0 101,0 L118,0 Z M23,0 C24.6568542,0 26,1.34314575 26,3 C26,4.65685425 24.6568542,6 23,6 L23,6 L6,6 L6,23 C6,24.6568542 4.65685425,26 3,26 C1.34314575,26 0,24.6568542 0,23 L0,23 L0,6 C0,2.6862915 2.6862915,0 6,0 L6,0 Z"/></g></g>
</svg>