<svg xmlns="http://www.w3.org/2000/svg" viewBox="0 0 60 75" x="0px" y="0px"><circle fill="#FFFFFF" cx="20" cy="24" r="3"/><circle fill="#FFFFFF" cx="33" cy="17" r="3"/><circle fill="#FFFFFF" cx="33" cy="31" r="3"/><path fill="#FFFFFF" d="M9.54,37.99a7.981,7.981,0,0,0,5.69-1.95,1.939,1.939,0,0,1,1.27-.47,1.81,1.81,0,0,1,.4.04,2.008,2.008,0,0,1,1.41,1.09,13.005,13.005,0,0,0,23.92-1.29,2.068,2.068,0,0,1,1.32-1.26,1.928,1.928,0,0,1,1.72.3,7.961,7.961,0,0,0,5.36,1.53,8,8,0,0,0,2.42-15.37,1.96,1.96,0,0,1-1.18-2.16,8.624,8.624,0,0,0,.03-2.78,8.022,8.022,0,0,0-9.29-6.55,2.044,2.044,0,0,1-2.15-1,12,12,0,0,0-22.11,2.99,1.948,1.948,0,0,1-.98,1.26,2.024,2.024,0,0,1-1.65.11,8,8,0,0,0-10.14,4.5,8.071,8.071,0,0,0-.32,5.04,2.06,2.06,0,0,1-.62,2.05,7.923,7.923,0,0,0-2.58,6.91A8.047,8.047,0,0,0,9.54,37.99Zm37.54-5.81a1.006,1.006,0,0,1,1.32-.51,4,4,0,0,0,5.57-3.17,3.935,3.935,0,0,0-2.37-4.16,1,1,0,1,1,.8-1.84,6,6,0,0,1-1.92,11.48c-.17.01-.32.02-.48.02a5.931,5.931,0,0,1-2.4-.5A1,1,0,0,1,47.08,32.18ZM21.11,9.4A10.019,10.019,0,0,1,37.46,7.33a1,1,0,0,1-1.49,1.34,8.01,8.01,0,0,0-13.08,1.65,1.012,1.012,0,0,1-.89.54,1.072,1.072,0,0,1-.46-.11A1.006,1.006,0,0,1,21.11,9.4ZM20,19a4.928,4.928,0,0,1,3.81,1.81l4.42-2.38A5.155,5.155,0,0,1,28,17a5,5,0,1,1,5,5,4.928,4.928,0,0,1-3.81-1.81l-4.42,2.38a4.56,4.56,0,0,1,0,2.86l4.42,2.38A4.928,4.928,0,0,1,33,26a5,5,0,1,1-5,5,5.155,5.155,0,0,1,.23-1.43l-4.42-2.38A4.928,4.928,0,0,1,20,29a5,5,0,0,1,0-10ZM5.98,25.55a1,1,0,0,1,1.34,1.49,3.958,3.958,0,0,0-1.29,3.47,4.058,4.058,0,0,0,3.73,3.48,3.822,3.822,0,0,0,2.84-.96,1,1,0,0,1,1.32,1.51A5.964,5.964,0,0,1,10,36c-.12,0-.23,0-.35-.01a6.121,6.121,0,0,1-5.61-5.24A5.99,5.99,0,0,1,5.98,25.55Z"/><ellipse fill="#FFFFFF" cx="39.5" cy="49.5" rx="3.5" ry="2.5"/><ellipse fill="#FFFFFF" cx="47" cy="56.5" rx="2" ry="1.5"/></svg>